<svg width="1141" height="89" viewBox="0 0 1141 89" fill="none" xmlns="http://www.w3.org/2000/svg">
<path fill-rule="evenodd" clip-rule="evenodd" d="M38.7795 37.756H47.0432V41.8723C48.2335 39.5049 51.2862 37.3778 55.872 37.3778C64.6629 37.3778 66.75 42.0903 66.75 50.7367V66.75H57.85V52.7058C57.85 47.7819 56.6596 45.0051 53.6292 45.0051C49.4261 45.0051 47.6795 47.9977 47.6795 52.7036V66.75H38.7795V37.756ZM23.5182 66.3717H32.4183V37.3778H23.5182V66.3717ZM33.6932 27.9238C33.6935 28.6697 33.5456 29.4083 33.2579 30.0967C32.9703 30.785 32.5487 31.4092 32.0177 31.9332C30.9417 33.0026 29.4853 33.6012 27.9683 33.5975C26.4539 33.5965 25.0008 32.9994 23.9232 31.9354C23.3941 31.4097 22.974 30.7847 22.6869 30.0963C22.3997 29.4079 22.2513 28.6696 22.25 27.9238C22.25 26.4174 22.8507 24.9756 23.9254 23.9121C25.0021 22.8467 26.4558 22.2493 27.9705 22.25C29.4879 22.25 30.9431 22.8485 32.0177 23.9121C33.0902 24.9756 33.6932 26.4174 33.6932 27.9238Z" fill="#F5F5F5"/>
<path fill-rule="evenodd" clip-rule="evenodd" d="M298.327 22.3835C300.7 22.2743 301.456 22.25 307.5 22.25C313.544 22.25 314.3 22.2763 316.671 22.3835C319.042 22.4907 320.66 22.869 322.076 23.4171C323.558 23.9774 324.904 24.8532 326.016 25.986C327.149 27.0965 328.023 28.4395 328.581 29.9242C329.131 31.3401 329.507 32.9583 329.617 35.3249C329.726 37.7016 329.75 38.4581 329.75 44.5C329.75 50.5439 329.724 51.3004 329.617 53.6731C329.509 56.0397 329.131 57.6578 328.581 59.0737C328.023 60.5586 327.147 61.9039 326.016 63.016C324.904 64.1488 323.558 65.0226 322.076 65.5809C320.66 66.131 319.042 66.5073 316.675 66.6165C314.3 66.7257 313.544 66.75 307.5 66.75C301.456 66.75 300.7 66.7237 298.327 66.6165C295.96 66.5093 294.342 66.131 292.926 65.5809C291.441 65.0225 290.096 64.1473 288.984 63.016C287.852 61.9049 286.976 60.5602 286.417 59.0758C285.869 57.6599 285.493 56.0417 285.383 53.6751C285.274 51.2984 285.25 50.5419 285.25 44.5C285.25 38.4561 285.276 37.6996 285.383 35.329C285.491 32.9583 285.869 31.3401 286.417 29.9242C286.977 28.4397 287.853 27.0951 288.986 25.984C290.097 24.8522 291.441 23.9763 292.924 23.4171C294.34 22.869 295.958 22.4927 298.325 22.3835H298.327ZM316.491 26.3885C314.145 26.2813 313.441 26.259 307.5 26.259C301.559 26.259 300.855 26.2813 298.509 26.3885C296.339 26.4876 295.161 26.8497 294.377 27.1551C293.339 27.5597 292.597 28.039 291.818 28.8178C291.08 29.536 290.511 30.4103 290.155 31.3765C289.85 32.1614 289.488 33.3386 289.388 35.509C289.281 37.8553 289.259 38.5592 289.259 44.5C289.259 50.4408 289.281 51.1447 289.388 53.491C289.488 55.6614 289.85 56.8386 290.155 57.6235C290.511 58.5883 291.08 59.4641 291.818 60.1822C292.536 60.9205 293.412 61.4889 294.377 61.8449C295.161 62.1503 296.339 62.5124 298.509 62.6115C300.855 62.7187 301.557 62.741 307.5 62.741C313.443 62.741 314.145 62.7187 316.491 62.6115C318.661 62.5124 319.839 62.1503 320.623 61.8449C321.661 61.4403 322.403 60.961 323.182 60.1822C323.921 59.4641 324.489 58.5883 324.845 57.6235C325.15 56.8386 325.512 55.6614 325.611 53.491C325.719 51.1447 325.741 50.4408 325.741 44.5C325.741 38.5592 325.719 37.8553 325.611 35.509C325.512 33.3386 325.15 32.1614 324.845 31.3765C324.44 30.3389 323.961 29.5965 323.182 28.8178C322.464 28.0796 321.59 27.5115 320.623 27.1551C319.839 26.8497 318.661 26.4876 316.491 26.3885ZM304.658 51.3591C306.245 52.0198 308.013 52.1089 309.658 51.6113C311.304 51.1138 312.725 50.0603 313.681 48.6309C314.636 47.2015 315.065 45.4848 314.895 43.7741C314.725 42.0633 313.967 40.4646 312.749 39.251C311.973 38.4753 311.034 37.8813 310.001 37.5118C308.967 37.1423 307.865 37.0065 306.773 37.1142C305.681 37.222 304.626 37.5705 303.685 38.1347C302.743 38.699 301.939 39.4649 301.329 40.3774C300.72 41.2898 300.32 42.3262 300.159 43.4117C299.997 44.4972 300.079 45.605 300.397 46.6552C300.716 47.7055 301.263 48.6721 302 49.4855C302.736 50.2988 303.644 50.9387 304.658 51.3591ZM299.413 36.4131C300.475 35.3512 301.736 34.5087 303.123 33.934C304.511 33.3593 305.998 33.0634 307.5 33.0634C309.002 33.0634 310.489 33.3593 311.877 33.934C313.264 34.5087 314.525 35.3512 315.587 36.4131C316.649 37.4751 317.491 38.7359 318.066 40.1234C318.641 41.511 318.937 42.9981 318.937 44.5C318.937 46.0019 318.641 47.489 318.066 48.8766C317.491 50.2641 316.649 51.5249 315.587 52.5869C313.442 54.7316 310.533 55.9366 307.5 55.9366C304.467 55.9366 301.558 54.7316 299.413 52.5869C297.268 50.4421 296.063 47.5332 296.063 44.5C296.063 41.4668 297.268 38.5579 299.413 36.4131ZM321.473 34.7666C321.736 34.5184 321.947 34.2199 322.093 33.8887C322.238 33.5576 322.316 33.2006 322.321 32.8388C322.327 32.4771 322.259 32.118 322.123 31.7827C321.987 31.4475 321.785 31.1429 321.53 30.8871C321.274 30.6313 320.969 30.4294 320.634 30.2934C320.299 30.1574 319.94 30.09 319.578 30.0953C319.216 30.1006 318.859 30.1784 318.528 30.3241C318.197 30.4698 317.898 30.6805 317.65 30.9437C317.167 31.4555 316.903 32.1353 316.913 32.8388C316.923 33.5424 317.207 34.2142 317.705 34.7117C318.202 35.2092 318.874 35.4933 319.578 35.5035C320.281 35.5138 320.961 35.2494 321.473 34.7666Z" fill="#F5F5F5"/>
<path d="M573.61 64.5182V46.2821H579.762L580.676 39.1421H573.61V34.5942C573.61 32.5338 574.184 31.1232 577.141 31.1232H580.888V24.7574C579.065 24.5621 577.232 24.4677 575.399 24.4749C569.961 24.4749 566.227 27.7946 566.227 33.8888V39.1287H560.115V46.2687H566.241V64.5182H573.61Z" fill="#F5F5F5"/>
<path d="M849.899 36.2118V37.3243C849.899 48.5272 841.4 61.3654 825.847 61.3654C821.256 61.3753 816.762 60.0411 812.92 57.5273C813.587 57.6179 814.26 57.6588 814.934 57.6497C818.739 57.6601 822.438 56.3906 825.436 54.0452C823.667 54.0191 821.952 53.4364 820.534 52.3799C819.116 51.3234 818.068 49.8468 817.537 48.16C818.063 48.2717 818.6 48.3276 819.139 48.3269C819.891 48.3271 820.639 48.226 821.364 48.0265C819.449 47.6448 817.726 46.6093 816.49 45.0975C815.254 43.5856 814.582 41.6912 814.589 39.7384V39.6272C815.76 40.2817 817.074 40.6406 818.416 40.6729C816.63 39.4976 815.36 37.6847 814.866 35.6046C814.371 33.5245 814.69 31.3341 815.757 29.4812C817.882 32.095 820.533 34.2323 823.539 35.7541C826.544 37.276 829.836 38.1483 833.201 38.3144C833.034 37.683 832.956 37.0316 832.967 36.3787C832.905 34.6531 833.375 32.9501 834.315 31.5016C835.255 30.0532 836.619 28.9296 838.22 28.2839C839.822 27.6382 841.583 27.5018 843.265 27.8932C844.947 28.2846 846.467 29.1848 847.619 30.4713C849.512 30.0892 851.328 29.3936 852.992 28.4132C852.361 30.4061 851.019 32.097 849.221 33.1635C850.9 32.9321 852.538 32.46 854.082 31.7618C852.963 33.4813 851.546 34.9881 849.899 36.2118V36.2118Z" stroke="#F5F5F5" stroke-width="2.225" stroke-linecap="round" stroke-linejoin="round"/>
<path d="M1117.76 33.8135C1117.51 32.8715 1117.01 32.0126 1116.32 31.3228C1115.63 30.633 1114.77 30.1365 1113.83 29.883C1111.26 28.8884 1086.32 28.4012 1079.08 29.9108C1078.14 30.1645 1077.28 30.6611 1076.59 31.3511C1075.9 32.0411 1075.4 32.9002 1075.15 33.8424C1073.99 38.941 1073.9 49.9636 1075.18 55.1768C1075.43 56.1188 1075.93 56.9777 1076.62 57.6675C1077.31 58.3573 1078.17 58.8538 1079.11 59.1073C1084.21 60.281 1108.45 60.4456 1113.86 59.1073C1114.8 58.8538 1115.66 58.3573 1116.35 57.6675C1117.04 56.9777 1117.54 56.1188 1117.79 55.1768C1119.03 49.6221 1119.12 39.2825 1117.76 33.8135V33.8135Z" stroke="#F5F5F5" stroke-width="2.225" stroke-linecap="round" stroke-linejoin="round"/>
<path d="M1103.81 44.4943L1092.19 37.8293V51.1593L1103.81 44.4943Z" stroke="#F5F5F5" stroke-width="2.225" stroke-linecap="round" stroke-linejoin="round"/>
</svg>
