<svg width="82" height="113" viewBox="0 0 82 113" fill="none" xmlns="http://www.w3.org/2000/svg">
<path d="M6.26945 44.1559C6.26945 20.5086 25.8585 1.34005 50.0215 1.34005C51.5403 1.34005 53.0398 1.41631 54.5176 1.56346C54.6748 1.57951 54.7171 1.3561 54.5627 1.3173C51.9285 0.661808 49.2 0.240415 46.4003 0.0772104C20.7815 -1.41973 -0.76647 19.0491 0.0209196 44.1519C0.622398 63.3432 14.1297 79.3547 32.334 84.1572C32.8042 84.2816 33.038 83.6261 32.591 83.4361C17.1015 76.8477 6.26945 61.7392 6.26945 44.1559Z" fill="white"/>
<path d="M67.6122 84.5102C67.5233 84.5102 67.4331 84.5075 67.3442 84.5035C64.4202 84.3604 62.1688 81.9257 62.3151 79.0642C62.4108 77.178 62.5256 75.5219 62.6349 73.9206C62.7416 72.3688 62.8523 70.7649 62.9493 68.9134C63.0286 67.3964 63.4114 65.9303 64.0853 64.5564C65.2787 62.1217 66.468 59.6496 67.619 57.259C67.8104 56.863 68.0018 56.4644 68.1945 56.063C68.7632 54.8818 67.9867 53.4999 66.6621 53.3381L24.2524 48.173C22.4125 47.9496 20.7119 47.0868 19.4652 45.7437C18.2089 44.3912 17.494 42.6415 17.4516 40.8168C17.0907 25.0769 28.5762 11.2901 44.1682 8.74835C51.6197 7.53368 59.35 9.03328 65.9335 12.9716C72.5292 16.918 77.5051 23.0422 79.9425 30.2192C80.8652 32.9375 79.3629 35.8738 76.5851 36.7781C73.8074 37.6811 70.8068 36.2109 69.8827 33.4926C66.5035 23.5438 56.1978 17.3059 45.9097 18.9821C37.3332 20.38 30.6158 26.9122 28.6391 35.0952C28.2427 36.7353 29.406 38.346 31.1147 38.5546L75.8182 43.9993C78.0013 44.2655 79.9329 45.5524 80.9855 47.4413C82.0381 49.3315 82.0982 51.6177 81.1441 53.5575C79.7839 56.3226 78.4743 59.0449 77.2085 61.6762C76.0506 64.0842 74.8518 66.5737 73.6406 69.0432C73.5777 69.1716 73.5422 69.3067 73.5354 69.4445C73.4342 71.3789 73.3207 73.0243 73.2114 74.6149C73.0993 76.2443 72.994 77.7827 72.9024 79.5793C72.7603 82.3551 70.4186 84.5102 67.6122 84.5102Z" fill="white"/>
<path d="M44.2871 95.4673L58.8538 90.2581C60.4969 89.6708 61.3431 87.8903 60.7416 86.281C60.1415 84.673 58.322 83.845 56.6775 84.4336L42.1108 89.6428C40.4677 90.23 39.6215 92.0106 40.223 93.6199C40.8231 95.2278 42.6426 96.0546 44.2871 95.4673Z" fill="white"/>
<path d="M69.8544 92.0239C69.1476 90.3249 67.1669 89.5102 65.4321 90.2018L43.6682 98.8785C41.9321 99.5701 41.0996 101.508 41.8064 103.206C42.5131 104.905 44.4939 105.72 46.2286 105.028L67.9925 96.3515C69.7272 95.6598 70.5611 93.7228 69.8544 92.0239Z" fill="white"/>
<path d="M68.1152 103.007C67.444 101.212 65.4141 100.287 63.5782 100.944L50.0408 105.785C48.2063 106.442 47.2617 108.429 47.9329 110.225C48.6041 112.021 50.6341 112.945 52.47 112.288L66.0073 107.447C67.8418 106.79 68.7864 104.802 68.1152 103.007Z" fill="white"/>
</svg>
