<svg width="89" height="88" viewBox="0 0 89 88" fill="none" xmlns="http://www.w3.org/2000/svg">
<path d="M44.5092 43.9797C40.4777 43.9797 37.1793 40.6813 37.1793 36.6498C37.1793 32.6183 40.4777 29.3199 44.5092 29.3199C48.5406 29.3199 51.8391 32.6183 51.8391 36.6498C51.8391 40.6813 48.5406 43.9797 44.5092 43.9797ZM66.499 37.3828C66.499 24.079 56.7868 14.66 44.5092 14.66C32.2315 14.66 22.5194 24.079 22.5194 37.3828C22.5194 45.9588 29.6661 57.3202 44.5092 70.8806C59.3523 57.3202 66.499 45.9588 66.499 37.3828ZM44.5092 7.33008C59.902 7.33008 73.8289 19.1313 73.8289 37.3828C73.8289 49.5505 64.0435 63.9538 44.5092 80.6294C24.9749 63.9538 15.1895 49.5505 15.1895 37.3828C15.1895 19.1313 29.1163 7.33008 44.5092 7.33008Z" fill="#016BBA"/>
</svg>
